<?xml version="1.0"?>
<svg width="134" height="134" xmlns="http://www.w3.org/2000/svg">

 <g>
  <title>background</title>
  <rect fill="none" id="canvas_background" height="136" width="136" y="-1" x="-1"/>
 </g>
 <g>
  <title>Layer 1</title>
  <ellipse ry="66" rx="66" id="svg_9" cy="67" cx="67" stroke-width="2" stroke="#28b9f1" fill="none"/>
  <g stroke="null" id="svg_1">
   <path stroke="null" fill="#28b9f1" id="svg_2" d="m43.374367,36.641319c0.512367,0 1.022575,-0.195396 1.414452,-0.586185c0.781586,-0.780502 0.781586,-2.048412 0,-2.827824l-5.90641,-5.90641c-0.78159,-0.78159 -2.047325,-0.78159 -2.82782,0c-0.781593,0.780502 -0.781593,2.048409 0,2.827824l5.906403,5.90641c0.389713,0.390789 0.902084,0.586185 1.413376,0.586185z"/>
   <path stroke="null" fill="#28b9f1" id="svg_3" d="m97.945404,27.319815c-0.781586,-0.781588 -2.047325,-0.781588 -2.827827,0l-5.906403,5.906412c-0.781586,0.780495 -0.781586,2.048405 0,2.82782c0.3908,0.390797 0.903168,0.586193 1.414452,0.586193c0.512375,0 1.023659,-0.195396 1.414467,-0.586193l5.906403,-5.906408c0.78051,-0.779413 0.78051,-2.047321 -0.001091,-2.827824z"/>
   <path stroke="null" fill="#28b9f1" id="svg_4" d="m56.241234,26.413391c0.280075,0.838036 1.06057,1.369949 1.898602,1.369949c0.208427,0 0.422283,-0.033653 0.63179,-0.104212c1.047543,-0.348457 1.614197,-1.480675 1.265728,-2.529305l-2.951569,-8.859068c-0.348457,-1.047544 -1.477417,-1.614194 -2.529305,-1.265738c-1.048626,0.349544 -1.615276,1.481758 -1.265732,2.530386l2.950485,8.857986z"/>
   <path stroke="null" fill="#28b9f1" id="svg_5" d="m75.22728,27.679129c0.208427,0.069473 0.423363,0.104212 0.632881,0.104212c0.836952,0 1.618538,-0.529745 1.896431,-1.368864l2.954826,-8.859072c0.348457,-1.048628 -0.216026,-2.180842 -1.264641,-2.530386c-1.048637,-0.3528 -2.183022,0.216022 -2.530403,1.264652l-2.953735,8.859068c-0.348457,1.04863 0.216011,2.181932 1.264641,2.53039z"/>
   <path stroke="null" fill="#28b9f1" id="svg_6" d="m75.22728,104.597054l-17.72031,5.903145c-1.048626,0.34845 -1.614193,1.48175 -1.264645,2.531471c0.278984,0.836952 1.059479,1.36779 1.897511,1.36779c0.208427,0 0.422283,-0.033661 0.63179,-0.104225l17.721394,-5.904228c1.046463,-0.348457 1.613113,-1.481766 1.263573,-2.531479c-0.347389,-1.046463 -1.482849,-1.61203 -2.529312,-1.262474z"/>
   <path stroke="null" fill="#28b9f1" id="svg_7" d="m71.914215,111.606354l-11.46978,3.822189c-1.047543,0.349533 -1.614189,1.48175 -1.264652,2.531479c0.280071,0.836945 1.05949,1.367767 1.897518,1.367767c0.209518,0 0.422279,-0.033653 0.631783,-0.10421l11.470871,-3.823265c1.047539,-0.348465 1.613121,-1.481758 1.263565,-2.528221c-0.347366,-1.047539 -1.482841,-1.615273 -2.529305,-1.265739z"/>
   <path stroke="null" fill="#28b9f1" id="svg_8" d="m67,33.620274c-13.411816,0 -25.625195,12.213379 -25.625195,25.624107c0,9.431156 3.907932,15.68494 7.686687,21.73354c3.639805,5.82283 7.078789,11.324326 7.078789,19.61132c0,1.103996 0.894485,1.999565 2.000641,1.999565l5.392952,0l-6.025818,2.009323c-1.04863,0.348465 -1.614193,1.480675 -1.264648,2.528221c0.27898,0.838036 1.059479,1.367775 1.897514,1.367775c0.208424,0 0.422279,-0.031479 0.631779,-0.102036l17.721401,-5.90641c0.022812,-0.007607 0.042336,-0.021706 0.066216,-0.028221c0.067314,-0.02607 0.133537,-0.057541 0.197571,-0.087936c0.05645,-0.029297 0.110733,-0.058609 0.161751,-0.089005c0.055367,-0.033661 0.106377,-0.072739 0.158485,-0.112907c0.052101,-0.041237 0.103127,-0.080322 0.15197,-0.12484c0.045601,-0.043411 0.086845,-0.091187 0.128113,-0.137856c0.041229,-0.048851 0.08358,-0.096611 0.120491,-0.14872c0.03907,-0.054276 0.072716,-0.111801 0.106369,-0.16935c0.030396,-0.052101 0.06189,-0.104202 0.086845,-0.158485c0.028221,-0.060791 0.05101,-0.124832 0.072731,-0.19104c0.019547,-0.057541 0.040176,-0.116165 0.055351,-0.176956c0.015198,-0.062958 0.023888,-0.124832 0.032585,-0.189972c0.010849,-0.067299 0.019531,-0.135681 0.021706,-0.205162c0.001083,-0.026054 0.00869,-0.04995 0.00869,-0.074898c0,-8.288086 3.437897,-13.788498 7.078781,-19.611313c3.777664,-6.047531 7.685608,-12.301315 7.685608,-21.733551c-0.003265,-13.411816 -12.216637,-25.625195 -25.627365,-25.625195zm12.922226,37.197018c-5.617645,8.424858 -5.681694,19.817566 -5.681694,19.931564c0,0.737076 -0.597038,1.334122 -1.334129,1.334122c-0.738167,0 -1.334122,-0.597046 -1.334122,-1.334122c0,-0.461365 0.059708,-10.620911 4.871887,-19.337769l-3.538841,0c-0.209511,0 -0.409248,-0.046669 -0.585106,-0.135696l-1.175644,2.352371c-0.27681,0.554703 -0.905342,0.838028 -1.49913,0.702332c-0.60247,-0.143295 -1.026917,-0.679535 -1.026917,-1.299377l0,-0.257286l-0.427689,0.854332c-0.277901,0.554703 -0.893402,0.840195 -1.500221,0.702332c-0.601395,-0.143295 -1.025826,-0.679535 -1.025826,-1.299377l0,-0.257286l-0.427704,0.854332c-0.276817,0.554703 -0.89341,0.840195 -1.500221,0.702332c-0.601387,-0.143295 -1.025826,-0.679535 -1.025826,-1.299377l0,-0.255112l-0.425529,0.852158c-0.27573,0.549271 -0.892326,0.840195 -1.499138,0.700172c-0.60247,-0.140038 -1.026913,-0.679558 -1.026913,-1.296143l0,-1.619629l-2.204731,0c4.812187,8.716866 4.871895,18.877495 4.871895,19.337761c0,0.737099 -0.597038,1.334137 -1.333035,1.334137l-0.001087,0c-0.736004,0 -1.333042,-0.597038 -1.334129,-1.33197c0,-0.113968 -0.078156,-11.527313 -5.682793,-19.933701c-0.272465,-0.409256 -0.297432,-0.934662 -0.066212,-1.367775c0.232304,-0.434227 0.683887,-0.705605 1.175632,-0.705605l5.90641,0c0.208424,0 0.408165,0.049927 0.582939,0.135681l1.174545,-2.350174c0.276814,-0.553635 0.894485,-0.844566 1.499123,-0.702347c0.602478,0.142197 1.026917,0.679535 1.026917,1.298302l0,0.257271l0.427711,-0.854332c0.276817,-0.553612 0.894478,-0.842369 1.49913,-0.701241c0.602463,0.142197 1.026917,0.679535 1.026917,1.298302l0,0.257271l0.427704,-0.854332c0.275719,-0.553612 0.898819,-0.844536 1.499123,-0.701241c0.602478,0.142197 1.028015,0.679535 1.028015,1.298302l0,0.257271l0.426598,-0.854332c0.276817,-0.553612 0.899918,-0.844536 1.49913,-0.701241c0.60247,0.142197 1.028,0.679535 1.028,1.298302l0,1.618538l4.573364,0c0.491753,0 0.943344,0.271378 1.175644,0.705605c0.235573,0.43203 0.208427,0.957428 -0.064049,1.366676zm-12.920059,-32.24371c0,0 17.718147,0 20.668633,17.717052c-0.041252,0.007599 -2.950485,-11.810642 -20.668633,-17.717052z"/>
  </g>
 </g>
</svg>