<?xml version="1.0"?>
<svg width="51" height="51" xmlns="http://www.w3.org/2000/svg">

 <g>
  <title>background</title>
  <rect fill="none" id="canvas_background" height="53" width="53" y="-1" x="-1"/>
 </g>
 <g>
  <title>Layer 1</title>
  <path stroke="null" id="svg_1" d="m21.386879,16.646952c-0.214668,-0.134634 -0.481697,-0.136879 -0.703098,-0.014957c-0.219906,0.123415 -0.355291,0.355288 -0.355291,0.606607l0,16.524292c0,0.25132 0.135386,0.4832 0.355291,0.606613c0.106215,0.058342 0.222897,0.088257 0.339581,0.088257c0.12641,0 0.252071,-0.033653 0.363518,-0.103218l13.45834,-8.26215c0.206436,-0.126406 0.331348,-0.350052 0.331348,-0.591648c0,-0.241594 -0.124912,-0.465239 -0.331348,-0.591646l-13.45834,-8.26215zm0.331352,15.875048l0,-14.041758l11.43581,7.020506l-11.43581,7.021252zm3.782516,-32.248995c-13.910116,0 -25.227743,11.31763 -25.227743,25.227743c0,13.910118 11.317627,25.226246 25.227743,25.226246c13.910118,0 25.226246,-11.316128 25.226246,-25.226246c0,-13.910113 -11.316128,-25.227743 -25.226246,-25.227743zm0,49.065001c-13.144932,0 -23.838751,-10.693817 -23.838751,-23.837257c0,-13.144935 10.693819,-23.838752 23.838751,-23.838752c13.14344,0 23.837257,10.693817 23.837257,23.838752c0,13.14344 -10.693817,23.837257 -23.837257,23.837257z" fill="#444444"/>
 </g>
</svg>