<?xml version="1.0"?>
<svg width="134" height="134" xmlns="http://www.w3.org/2000/svg">

 <g>
  <title>background</title>
  <rect fill="none" id="canvas_background" height="136" width="136" y="-1" x="-1"/>
 </g>
 <g>
  <title>Layer 1</title>
  <ellipse stroke="#28b9f1" ry="65" rx="65" id="svg_5" cy="67" cx="67" stroke-width="2" fill="none"/>
  <g stroke="null" id="svg_4">
   <path stroke="null" id="svg_1" d="m98.955414,60.100094c-0.985428,-1.671932 -2.767517,-2.576752 -4.586349,-2.512486c-0.812988,0.027542 -1.626007,0.256046 -2.375778,0.685501c-2.440063,1.416912 -3.271446,4.550636 -1.854538,6.989677c0,0 13.295891,22.934731 13.478477,23.272385c1.352654,2.384964 -0.475349,5.272842 -3.13372,5.282028c-8.982925,0.009178 -10.828278,0 -17.936279,0l2.584915,-4.148712c1.032333,-1.662743 1.004791,-3.681511 0.09079,-5.262665c-0.41008,-0.702835 -0.986435,-1.325089 -1.717834,-1.781075c-2.393143,-1.490349 -5.553383,-0.768127 -7.042709,1.635208l-7.426277,11.896317c-0.018364,0.018364 -0.030602,0.044884 -0.044884,0.072418c-0.010208,0.018364 -0.022446,0.035713 -0.031624,0.055099c-0.022446,0.02652 -0.036728,0.064255 -0.055084,0.100975c-0.078545,0.136703 -0.146904,0.274406 -0.206062,0.419273c-0.022446,0.055084 -0.045898,0.100983 -0.067329,0.155052c-0.072426,0.183609 -0.137718,0.365189 -0.19178,0.557983c0,0 0,0.009186 -0.005089,0.009186c-0.055092,0.210136 -0.091812,0.411095 -0.123436,0.620224c-0.005096,0.036713 -0.005096,0.073441 -0.009178,0.110153c-0.023468,0.173424 -0.031624,0.338676 -0.03672,0.501892c0,0.046928 0,0.102013 0,0.146889c0,0.19178 0.010193,0.38356 0.03672,0.57534c0,0.009178 0,0.02652 0,0.036713c0.027534,0.191788 0.068336,0.392738 0.113228,0.584518c0.015305,0.055084 0.032646,0.109146 0.046921,0.15506c0.044876,0.155052 0.096909,0.301949 0.15097,0.446793c0.018364,0.055092 0.035713,0.10099 0.055092,0.145874c0.081612,0.19178 0.16729,0.375397 0.273376,0.557999c0,0 0.004089,0 0.004089,0.010185l7.124321,12.335976c1.406708,2.440063 4.53125,3.279602 6.980484,1.863716c2.447205,-1.406708 3.27961,-4.53125 1.871864,-6.981506l-2.657326,-4.605721c8.194397,0.009178 15.413589,0.009178 18.218842,0.009178c10.891518,0 17.287491,-11.421974 11.906509,-20.760902l-13.434601,-23.178547z" fill="#28b9f1"/>
   <path stroke="null" id="svg_2" d="m60.495895,104.23336c1.937157,-0.018356 3.618271,-1.11496 4.468002,-2.71447c0.379478,-0.721199 0.593697,-1.535225 0.589622,-2.402306c-0.004082,-2.824631 -2.297253,-5.107605 -5.120869,-5.098419c0,0 -26.517296,0.045891 -26.89167,0.02652c-2.742001,-0.018356 -4.335384,-3.041916 -3.006208,-5.344254c4.482283,-7.786377 5.41363,-9.384857 8.968649,-15.534996l2.298267,4.31295c0.918083,1.727013 2.685902,2.705284 4.513908,2.705284c0.813011,0 1.63623,-0.19178 2.399258,-0.594711c2.490047,-1.334274 3.435665,-4.422096 2.110569,-6.917236l-6.591831,-12.379848c-0.014286,-0.027542 -0.027546,-0.04488 -0.04591,-0.07243c-0.009178,-0.01836 -0.014278,-0.03672 -0.027542,-0.05508c-0.01836,-0.036724 -0.041821,-0.06427 -0.064262,-0.10099c-0.077526,-0.136692 -0.164238,-0.265224 -0.256042,-0.383556c-0.031624,-0.045902 -0.068348,-0.091805 -0.099972,-0.137714c-0.123428,-0.155052 -0.250942,-0.311127 -0.388653,-0.447815c-0.004082,0 -0.009186,-0.009182 -0.009186,-0.009182c-0.15097,-0.145874 -0.311127,-0.282562 -0.475357,-0.411095c-0.027542,-0.027542 -0.059166,-0.044888 -0.09079,-0.07243c-0.132614,-0.10099 -0.274406,-0.19178 -0.416199,-0.274403c-0.041821,-0.027542 -0.082626,-0.055084 -0.127514,-0.08263c-0.169334,-0.09079 -0.338665,-0.182594 -0.516163,-0.256039c-0.009178,0 -0.01836,-0.009182 -0.027542,-0.009182c-0.183613,-0.08263 -0.375393,-0.145878 -0.567173,-0.200958c-0.055084,-0.009182 -0.105068,-0.019386 -0.160152,-0.036724c-0.155056,-0.036728 -0.306026,-0.073448 -0.466183,-0.090794c-0.045902,-0.009174 -0.09589,-0.018356 -0.146896,-0.027542c-0.206059,-0.027534 -0.411095,-0.03672 -0.621231,-0.03672c-0.004082,0 -0.004082,0 -0.004082,0l-14.246607,0c-2.823616,0 -5.111683,2.283985 -5.111683,5.107601c0,2.823616 2.288067,5.116783 5.111683,5.116783l5.312641,0c-4.101791,7.098824 -7.706797,13.339745 -9.109425,15.77063c-5.450354,9.438911 1.242472,20.678276 12.019747,20.687462l26.796795,-0.035706z" fill="#28b9f1"/>
   <path stroke="null" id="svg_3" d="m41.25288,49.693119c-0.950726,1.690292 -0.840553,3.691711 0.123428,5.226948c0.429462,0.684479 1.027233,1.28838 1.782104,1.717834c2.449242,1.40773 5.57378,0.556973 6.98151,-1.891247c0,0 13.212231,-22.985731 13.413189,-23.300941c1.38937,-2.366613 4.801579,-2.234005 6.141987,0.073441c4.494507,7.766983 5.409538,9.374649 8.962524,15.533966l-4.87809,-0.173416c-1.956543,-0.064262 -3.691719,0.977249 -4.606728,2.558392c-0.406006,0.703861 -0.648781,1.507694 -0.681427,2.375793c-0.095894,2.823616 2.110565,5.190228 4.934174,5.291218l14.010979,0.475361c0.03672,0 0.064278,0 0.091789,0c0.018372,0 0.036736,0.009186 0.064285,0.009186c0.035706,0 0.072433,-0.009186 0.118309,-0.009186c0.155052,0 0.310127,-0.009178 0.465187,-0.027542c0.055084,-0.009178 0.109146,-0.01836 0.16423,-0.01836c0.191788,-0.027542 0.384567,-0.064262 0.576355,-0.11935c0.009186,0 0.009186,0 0.018349,0c0.199944,-0.05407 0.402946,-0.127514 0.593697,-0.200958c0.036713,-0.01836 0.073456,-0.03672 0.109146,-0.045906c0.146904,-0.072422 0.301949,-0.14587 0.446815,-0.219315c0.03672,-0.02755 0.082619,-0.055092 0.128517,-0.073452c0.164246,-0.099964 0.328491,-0.21014 0.475388,-0.319286c0.009163,-0.009178 0.018341,-0.018364 0.027527,-0.018364c0.163223,-0.119347 0.310097,-0.256039 0.455994,-0.393753c0.036713,-0.044884 0.073441,-0.08263 0.109123,-0.118328c0.109177,-0.119354 0.219337,-0.237682 0.311134,-0.356014c0.036728,-0.036728 0.06427,-0.073448 0.10099,-0.11935c0.11834,-0.164234 0.237694,-0.337654 0.347847,-0.521271l0,0l7.118195,-12.334949c1.416916,-2.449242 0.575348,-5.573788 -1.863693,-6.985592c-2.448204,-1.411808 -5.573784,-0.571251 -6.981506,1.872887l-2.658356,4.600616c-4.102814,-7.099838 -7.701698,-13.345863 -9.108414,-15.775719c-5.45137,-9.439934 -18.530991,-9.265499 -23.926254,0.06324l-13.368305,23.223419z" fill="#28b9f1"/>
  </g>
 </g>
</svg>