<?xml version="1.0"?>
<svg width="134" height="134" xmlns="http://www.w3.org/2000/svg">

 <g>
  <title>background</title>
  <rect fill="none" id="canvas_background" height="136" width="136" y="-1" x="-1"/>
 </g>
 <g>
  <title>Layer 1</title>
  <ellipse stroke="#28b9f1" ry="66" rx="66" id="svg_5" cy="67" cx="67" stroke-width="2" fill="none"/>
  <g stroke="null" id="svg_4">
   <path stroke="null" id="svg_1" d="m79.983444,61.710182c5.202095,-3.828556 8.579971,-10.153088 8.579971,-17.107449c0,-11.617092 -9.417343,-21.116261 -21.034653,-21.116261c-11.617134,0 -21.03466,9.377655 -21.03466,20.994995c0,6.954361 3.377872,13.420753 8.579788,17.249111c-11.900898,4.826145 -20.280933,17.001926 -20.280933,30.622227c0,18.160721 65.472698,18.160721 65.472698,0c-0.001091,-13.6194 -8.382431,-25.816483 -20.282211,-30.642624z" fill="#28b9f1"/>
   <path stroke="null" id="svg_2" d="m104.115723,62.235592c3.825035,-2.813835 6.307457,-7.398136 6.307457,-12.5116c0,-8.541229 -6.923752,-15.491138 -15.465141,-15.491138c-1.918259,0 -3.753433,0.351852 -5.448189,0.988731c1.212166,2.862621 1.884117,6.007915 1.884117,9.308472c0,6.08844 -2.327942,11.92701 -6.37999,16.316212c11.111008,6.212173 18.082428,18.035896 18.082428,31.21817c0,0.52005 -0.042084,1.069412 -0.13723,1.636696c8.84758,-1.11219 16.06884,-4.134911 16.06884,-9.068832c0,-10.616013 -6.162239,-18.847466 -14.912292,-22.396709z" fill="#28b9f1"/>
   <path stroke="null" id="svg_3" d="m31.959988,92.064438c0,-12.940445 6.727352,-24.569077 17.49432,-30.865211c0.164688,-0.150959 0.324554,-0.307514 0.482391,-0.464222c-3.986187,-4.384766 -6.275558,-10.197231 -6.275558,-16.270782c0,-3.132698 0.614071,-6.123486 1.718506,-8.86689c-1.935314,-0.873913 -4.079292,-1.364281 -6.33918,-1.364281c-8.541203,0 -15.46496,6.911324 -15.46496,15.452549c0,5.114563 2.483557,9.743153 6.307467,12.557041c-8.748924,3.549236 -14.910984,11.773838 -14.910984,22.389866c0,5.132706 7.814737,8.197113 17.146011,9.193848c-0.110527,-0.61203 -0.158012,-1.202171 -0.158012,-1.761917z" fill="#28b9f1"/>
  </g>
 </g>
</svg>