<?xml version="1.0" encoding="utf-8"?>
<!-- Generator: Adobe Illustrator 16.0.4, SVG Export Plug-In . SVG Version: 6.00 Build 0)  -->
<!DOCTYPE svg PUBLIC "-//W3C//DTD SVG 1.1//EN" "http://www.w3.org/Graphics/SVG/1.1/DTD/svg11.dtd">
<svg version="1.1" id="Layer_1" xmlns:sketch="http://www.bohemiancoding.com/sketch/ns"
	 xmlns="http://www.w3.org/2000/svg" xmlns:xlink="http://www.w3.org/1999/xlink" x="0px" y="0px" width="134px" height="134px"
	 viewBox="0 0 134 134" enable-background="new 0 0 134 134" xml:space="preserve">
<title>world</title>
<desc>Created with Sketch.</desc>
<g id="Page-1" sketch:type="MSPage">
	<g id="Desktop-HD" transform="translate(-904.000000, -360.000000)" sketch:type="MSArtboardGroup">
		<g id="world" transform="translate(905.000000, 361.000000)" sketch:type="MSLayerGroup">
			
				<ellipse id="Oval-3" sketch:type="MSShapeGroup" fill="none" stroke="#28B9F1" stroke-width="2" cx="65.638" cy="65.638" rx="65.638" ry="65.638">
			</ellipse>
			<path id="Imported-Layers" sketch:type="MSShapeGroup" fill="#28B9F1" d="M39.007,126.557l-0.004-0.015
				c-0.12-0.054-0.238-0.108-0.36-0.163c-0.177-0.085-0.896-0.414-1.01-0.48c-0.055-0.039-0.227-0.137,0.133,0.025
				c0.303,0.131,0.617,0.234,0.682,0.254c0.061,0.021-0.624-0.37-0.303-0.287c0.27,0.045,0.874,0.297,0.667,0.117
				c-0.262-0.213-1.526-0.744-1.266-0.682c0.202,0.031,1.31,0.427,1.404,0.377c0.035-0.081-0.393-0.539-0.131-0.495
				c0.264,0.042,2.457,0.659,2.444,0.521c0.05-0.121,0.406-0.482,0.406-0.482s-1.045-0.627-0.826-0.652
				c0.22-0.032,1.292,0.174,1.42,0.196c0.07-0.002,0.798,0.027,1.059-0.125c0.262-0.16,0.368-0.429,0.565-0.607
				c0.203-0.189,0.524-0.349,0.7-0.468c0.234-0.106,0.264-0.539,0.375-0.668c0.113-0.129,0.693-0.144,0.737-0.271
				c-0.007-0.149-0.026-0.282-0.061-0.526c-0.094-0.27-0.438-1.193,0.011-1.227c0.447-0.04,0.785-0.477,1.193-0.59
				c0.351-0.141,0.812,0.084,1.263-0.012c0.397-0.121,1.201-0.237,1.594-0.18c0.34,0.038,0.519,0.211,0.804,0.033
				c0.231-0.197,0.214-0.131,0.456-0.387c0.244-0.258-0.163-0.844,0.285-1.025c0.447-0.189,0.811-0.304,0.765-0.541
				c-0.048-0.239-0.076-0.951,0.087-1.143c0.107-0.209-0.311-3.389-0.044-3.426c0.222-0.052,0.632-0.068,0.794-0.281
				c0.205-0.201,0.432-0.861,0.728-0.858c0.25-0.009,0.597-0.405,0.723-0.515c0.17-0.1,0.609-0.341,0.787-0.479
				c0.177-0.141,0.292-0.022,0.227-0.756c-0.053-0.741-0.061-1.286-0.22-1.551c-0.163-0.266-1.119-0.588-1.631-0.855
				c-0.512-0.27-0.632-0.172-1.166-0.646c-0.567-0.486-0.944-0.965-1.627-1.098c-0.682-0.134-2.655-0.033-3.022-0.283
				c-0.366-0.248-0.918-0.716-1.079-0.479c-0.163,0.234-0.343,0.399-0.408,0.129c-0.061-0.269-0.205-0.854-0.36-0.924
				c-0.124-0.052-1.335-0.992-1.685-0.817c-0.31,0.193-1.531,1.835-1.793,1.475c-0.264-0.36,0.667-1.117,0.334-1.425
				c-0.368-0.329-1.053,0.004-1.28,0.193c-0.268,0.16-1.068,0.3-1.227,0.127c-0.122-0.147,0.163-0.649,0.439-0.736
				c0.242-0.113,0.867-0.655,0.859-0.961c-0.039-0.329-0.761-0.738-0.909-0.98c-0.185-0.268-0.765-2.188-1.215-1.824
				c-0.447,0.355-0.719,2.143-1.12,1.926c-0.399-0.218-1.211-0.928-1.522-0.7c-0.307,0.227-0.224,0.915-0.643,0.624
				c-0.454-0.322-1.197-2.1-1.204-2.619c-0.035-0.551,0.163-1.074-0.364-1.67c-0.527-0.592-3.259-2.499-2.804-2.82
				c0.491-0.293,0.646-1.589,0.21-1.352c-0.404,0.267-1.304,0.807-1.873,0.342c-0.549-0.434-1.128-1.068-1.443-0.679
				c-0.307,0.39-1.35-0.069-1.158-0.087c0.187-0.018-0.234-0.572-0.386-0.637c-0.127-0.027-2.721-0.46-2.721-0.46
				s-0.061,0.841-0.212,0.646c-0.147-0.196-0.582-1.135-0.582-1.135s-0.944,1.021-1.349,0.852c-0.405-0.174-1.147-0.396-1.367,0.746
				c-0.188,1.152-0.938,1.109-1.13,0.852c-0.166-0.213-0.927-0.643-1.323-0.793c-0.393-0.152,0.068,0.775-0.816,0.142
				c-0.852-0.605-1.677-1.117-1.753-1.581c-0.072-0.46-0.055-2.484-0.155-2.799c-0.102-0.315-2.002-1.258-2.505-1.784
				c-0.493-0.536-1.003-1.616-0.826-1.62c0.163-0.057,0.747-2.653,0.397-3.066c-0.346-0.418-2.078-0.394-2.071,0.08
				c0.011,0.475-0.094,2.26-0.458,2.193c-0.357-0.068-2.165-0.182-2.653-2.858c-0.436-2.729-0.378-2.862-0.292-3.187
				c0.087-0.319,0.261-0.477,0.141-0.693c-0.111-0.16-0.397-1.316-0.266-1.699c0.129-0.381,0.743-0.772,0.796-0.779
				c0.052-0.01,0.192-0.678,0.461-0.482c0.283,0.25,0.571-0.024,0.903,0.156c0.327,0.123,0.783,0.622,1.129,0.564
				c0.353-0.059,0.493-0.305,0.552-0.427c0.057-0.121,0.163-0.751,0.552-0.53c0.399,0.27,0.479-0.182,0.761,0.432
				c0.284,0.608,1.049,0.423,1.33,0.535c0.286,0.11,0.386-0.068,0.6,0.267c0.216,0.331,0.584,0.578,0.641,1.042
				c0.052,0.412-0.035,0.645,0.246,1.271c0.285,0.626,0.678,1.271,0.772,1.406c0.109,0.184,0.492,0.399,0.603,0.316
				c0.102-0.133,0.166-0.937,0.138-1.448c-0.041-0.562-0.225-1.19-0.307-1.688c-0.094-0.547-0.683-1.156-0.708-1.874
				c-0.011-0.666,0.046-1.897,0.289-2.082c0.249-0.182,1.498-1.898,1.991-2.135c0.5-0.281,1.404-0.963,1.465-1.246
				c0.061-0.328-0.353-0.867-0.321-1.242c0.029-0.373,0.336-0.799,0.416-1.217c0.079-0.416,0.31-0.837,0.489-1.2
				c0.185-0.362,0.451-1.398,0.722-1.61c0.27-0.211,1.574-0.705,1.783-1.036c0.212-0.332,1.118-0.041,1.125-0.506
				c0.007-0.467-1.114-0.234-0.861-0.773c0.255-0.578,0.872-1.36,1.273-1.899c0.408-0.571,3.262-2.442,3.062-2.083
				c-0.19,0.324-0.905,0.83-0.848,1.456c0.053,0.659-0.033,1.171,0.487,0.97c0.527-0.193,0.538-0.667,1.639-1.321
				c1.118-0.685,1.738-0.996,2.17-1.303c0.431-0.3,1.491-0.42,1.238-1.001c-0.262-0.522-0.523-1.971-0.879-1.59
				c-0.358,0.387-1.206,1.456-1.206,1.456c-0.898-0.447-0.898-0.447-1.779-0.898c0,0-0.551,0.75-0.519-0.023
				c0.025-0.742,0.423-1.204,0.423-1.204s0.462,0.558,0.53-0.122c0.057-0.646,0.046-1.237,0.137-1.498
				c0.09-0.263-2.651,0.105-2.5-0.379c0.151-0.482,2.42-1.023,2.488-0.778c0.055,0.28,0.347,0.521,0.65,0.849
				c0.295,0.362,1.261,0.723,1.106,0.177c-0.165-0.518-1.541-1.544-0.978-1.396c0.584,0.116,1.537,0.558,1.967,0.164
				c0.425-0.387,2.394-2.632,2.514-2.03c0.105,0.624-1.873,4.401-1.588,4.736c0.275,0.366,3.001,0.436,2.848,0.694
				c-0.146,0.229-1.642,0.261-0.903,0.875c0.741,0.629,1.108,0.986,1.469,0.364c0.364-0.615,0.591-1.208,0.787-0.93
				c0.194,0.276,0.697,0.53,0.697,0.53s0.491-0.007,0.757-0.488c0.253-0.449,0.408-0.841,0.227-1.658
				c-0.17-0.836-1.977-1.8-2.569-2.056c-0.591-0.252-0.909-0.721-0.652-1.021c0.242-0.267,0.754-1.058,0.833-1.292
				c0.094-0.267-0.417-1.439-0.425-1.528c0.013-0.118,0.855-1.287,0.318-1.741c-0.517-0.482-1.252-1.218-1.714-0.883
				c-0.443,0.309-2.543,1.739-1.995,1.185c0.522-0.513,2.385-1.246,1.821-1.96c-0.571-0.685-1.469-0.523-1.7-1.025
				c-0.22-0.504-1.143-1.991-1.143-1.991s0.508-0.643,0.281-0.976c-0.22-0.333-0.959-2.921-0.959-2.921s-0.715-2.13-1.025-1.392
				c-0.303,0.738-2.034,3.871-2.62,3.524c-0.548-0.377-1.093-0.99-0.984-1.395c0.109-0.407,0.447-2.076,0.14-2.313
				c-0.307-0.232-1.642-0.337-1.624-0.779c0.026-0.441-0.484-1.303-0.636-1.421c-0.151-0.116-0.86-0.186-0.923,0.042
				c-0.057,0.228,0.003,0.543-0.27,0.477c-0.272-0.066-0.549-0.272-0.776-0.166c-0.19,0.066-0.806,0.031-1.046,0.541
				c-0.242,0.51-0.151,1.703-0.465,2.15c-0.318,0.449-0.286,0.469-0.166,0.803c0.094,0.379,0.159,0.611-0.03,1.003
				c-0.183,0.394-1.345,0.466-0.465,1.66c0.96,1.202,0.816,1.951,0.491,2.892c-0.336,0.985-1.302,2.246-1.581,2.521
				c-0.277,0.276-0.606,0.475-0.551,0.782c0.035,0.354-0.078,1.259-0.127,1.519c-0.027,0.21,0.185,0.841,0.131,1.204
				c-0.033,0.313-0.116,1.685-0.625,1.574c-0.513-0.059-0.621-0.64-0.848-1.104c-0.22-0.468-0.61-0.492-0.499-0.847
				c0.094-0.306,0.455-0.342,0.296-0.571c-0.159-0.23-0.311-0.285-0.167-0.747c0.127-0.409,0.545-0.302,0.344-0.9
				c-0.216-0.552-0.273-1.104-0.747-1.009c-0.465,0.103-1.32-3.847-1.555-4.152c-0.253-0.252-1.291-0.431-1.742,0.075
				c-0.445,0.516-0.672,1.968-0.843,1.703c-0.164-0.265-0.757,2.06-1.038,1.889c-0.292-0.114-0.271-2.584-0.029-3.409
				c0.253-0.823,0.571-2.097,1.158-2.965c0.6-0.861,2.316-3.247,2.316-3.247s-0.072-0.257,0.257-0.627
				c0.327-0.368,0.364-0.49,0.552-0.659c0.183-0.169,0.804-0.563,0.944-0.83c0.146-0.269,0.805-1.356,0.82-1.051
				c0.02,0.308-0.905,1.785-0.824,1.911c0.117,0.074,0.787-0.272,0.839,0.116c0.028,0.44-0.098,0.71,0.41,0.057
				c0.51-0.65,0.877-2.046,1.128-1.649c0.233,0.449,1.415,0.578,1.513,0.294c0.068-0.238-0.046-0.605-0.443-1.187
				c-0.333-0.617-1.408-0.67-1.108-1.046c0.264-0.328,0.776-0.462,0.981-1.06c0.218-0.594,0.477-1.235,0.812-1.428
				c0.334-0.189,0.648-2.074,0.648-2.074s1.025-1.55,0.765-1.71c-0.295-0.108-1.25-0.316-1.099-0.433
				c0.152-0.116,2.396-1.765,2.215-1.242c-0.216,0.57,0.429,0.604,0.595,0.162c0.17-0.441,0.899-1.378,1.116-0.879
				c0.238,0.521,1.723,3.258,1.428,3.857c-0.25,0.563,0.124,0.688,0.124,0.688s2.413-0.429,1.984,0.088
				c-0.426,0.517-0.888,1.228-1.071,0.891c-0.216-0.291-0.567-0.795-1.079-0.744c-0.556,0.099-0.837,0.226-1.079,1.021
				c-0.264,0.835,0.537,0.876-0.336,1.075c-0.866,0.219-1.725-0.068-2.089,0.981c-0.378,1.095-1.23,1.881-0.981,2.071
				c0.281,0.146,2.468-2.08,2.688-1.524c0.234,0.563,0.663,0.493,0.578,0.924c-0.083,0.429,0.543,0.247,0.606,0.508
				c0.092,0.221,0.331,1.246,0.667,1.316c0.336,0.074,0.836-0.254,1.079,0.015c0.242,0.272,2.525,0.18,2.363,0.103
				c-0.159-0.077-2.154-2.354-1.704-2.375c0.453-0.015,2.721,2.494,2.913,1.933c0.161-0.528-0.4-1.275-0.214-1.375
				c0.188-0.1,1.252-0.599,1.112-0.959c-0.14-0.359-1.511-1.327-1.75-1.721c-0.271-0.354-0.571-2.878-0.102-2.614
				c0.512,0.239,1.552,0.35,1.447,0.952c-0.058,0.565-0.072,0.631,0.166,0.812c0.238,0.18,0.667,1.108,0.97,0.53
				c0.314-0.58,0.445-1.94,0.866-2.337c0.383-0.361,1.064-0.775,0.822-1.165c-0.233-0.385-1.504-0.683-1.698-0.922
				c-0.234-0.202-2.159-1.397-2.342-1.618c-0.185-0.217-0.299-0.631,0.042-1.13c0.351-0.499,1.578-0.821,1.097-1.063
				c-0.473-0.229-1.267,0.48-1.267,0.48s-0.948,0.516-0.53-0.001c0.469-0.552,1.158-0.538,0.813-0.786
				c-0.336-0.237-1.112-0.053-1.306,0.088c-0.196,0.142-1.158,0.112-0.571-0.318c0.593-0.427,0.9-0.427,0.848-0.688
				c0-0.294-0.167-1.208-0.743-0.249c-0.552,0.972-0.779,0.792-0.931,0.705c-0.102-0.124-0.447-0.055-0.353-0.423
				c0.053-0.324,0.462-0.712,0.227-0.801c-0.181-0.121-0.246-0.399-0.394-0.383c-0.147,0.017,0.004-0.195,0.231-0.414
				c0.231-0.217,0.266-0.786-0.163-0.611c-0.43,0.18-1.585,0.69-1.574,0.806c0.019,0.12,0.84,0.208,0.84,0.208
				s0.726-0.313,0.502-0.087c-0.223,0.227-0.7,0.542-0.912,0.876c-0.207,0.338-0.603,1.032-0.791,0.821
				c-0.223-0.16-0.064-0.554-0.329-0.182c-0.259,0.372-0.872,1.014-0.8,0.812c0.072-0.201,0.837-1.156,0.789-1.303
				c-0.042-0.146,0.377-1.229,0.301-1.222c-0.127,0.05-2.61,2.207-2.566,2.347c0,0.189,0.19,0.39,0.022,0.58
				c-0.17,0.191-0.423,0.39-0.423,0.482c-0.046,0.136-0.041,0.324-0.125,0.51c-0.127,0.232-0.502,0.927-0.571,0.953
				c-0.022-0.022-0.443,0.009-0.311-0.304c0.137-0.311,0.17-0.911,0.253-1.103c0.083-0.188,0.338-0.388,0.417-0.493
				c0.033-0.059-0.198-0.108,0.079-0.377c0.283-0.267,2.025-2.002,1.892-1.96c-0.087,0.002-1.664,1.067-1.967,1.412
				c-0.345,0.392-1.454,1.585-1.799,2.152c-0.333,0.576-0.719,1.273-0.579,1.314c0.144,0.046,1.199-0.455,0.848-0.171
				c-0.346,0.286-1.352,0.928-1.186,0.906c0.125,0.026,1.395,0.407,1.395,0.407s-0.565,1.09-0.489,1.158
				c0.035,0.114,0.292,0.009,0.163,0.225c-0.129,0.217-0.686,0.479-0.87,0.81c-0.224,0.381-0.22,0.707-0.58,1.134
				c-0.358,0.427-0.441,0.754-0.632,0.918c-0.227,0.215-0.48-0.534-0.109-1.038c0.371-0.504,0.578-0.902,0.646-1.171
				c0.115-0.316-0.515-0.269-0.595-0.169c-0.08,0.102-0.686,1.638-0.848,1.59c-0.159-0.044-0.333,0.142-0.105-0.322
				c0.234-0.466,0.587-1.075,0.5-1.229c-0.087-0.151-0.901,0.34-0.497-0.241c0.368-0.53,0.591-0.847,0.58-0.94
				c-0.009-0.092-0.345-0.635,0.366-1.48c0.724-0.837,0.861-0.891,0.826-1.011c0.019-0.162-0.635,0.304,0.105-0.348
				c0.804-0.677,0.39-0.263,0.504-0.243c0.166-0.02,0.545-0.561,0.617-0.671c0.072-0.111,0.826-1.02,0.966-1.154
				c0.192-0.18,0.927-0.826,0.866-0.889c-0.054-0.057-0.783,0.598-0.909,0.657c-0.17,0.107-0.368,0.28-0.512,0.414
				s-0.87,0.801-1.04,1.003c-0.208,0.252-0.007,0.081-0.303,0.434c-0.292,0.355-0.603,0.781-0.723,0.939
				c-0.114,0.16-0.118,0.333-0.393,0.699c-0.27,0.368-0.695,0.863-0.811,1.021c-0.076,0.108-0.346,0.306-0.569,0.71
				c-0.177,0.361,0.072,0.146-0.229,0.571c-0.299,0.427-0.309,0.417-0.443,0.644c-0.087,0.179,0.548,0.269,0.375,0.543
				c-0.168,0.276-0.645,1.445-1.003,1.894c-0.316,0.401-0.844,0.889-0.894,1.088c-0.015,0.147,0.054,0.504-0.144,0.6
				c-0.196,0.098-0.368-0.022-0.26-0.257c0.072-0.184,0.599-0.909,0.458-1.011c-0.168-0.044-0.035-0.265,0.139-0.379
				c0.172-0.112,0.565-0.703,0.761-1.119c0.202-0.416,0.379-1.178-0.105-0.569c-0.48,0.615-0.519,0.665-0.519,0.665
				s-0.976,0.981-0.867,1.217c0.102,0.311,0.375-0.05,0.322,0.07c-0.058,0.12,0.31-0.175,0.053,0.12
				c-0.253,0.292-0.652,0.642-0.728,0.826c-0.072,0.186-0.159,0.595-0.235,0.543c-0.072-0.049-1.271,0.869-1.328,0.755
				c-0.046-0.109-0.09-0.445-0.432,0.11c-0.307,0.504-0.726,1.091-0.759,1.224c-0.031,0.134-0.111,0.467-0.216,0.633
				c-0.141,0.221-0.656,1.204-0.56,0.884c0.074-0.262,0.322-0.873,0.275-0.9c-0.004-0.079-0.05-0.031-0.05-0.031
				c-0.177,0.278-0.177,0.278-0.318,0.499c0,0-0.22,0.33-0.39,0.609H8.459c-3.897,6.83-6.596,14.423-7.815,22.499l0.004,0.004
				c-0.024,0.195-0.05,0.39-0.091,0.716C0.45,58.45,0.41,59.039,0.276,60.344c-0.111,1.372-0.227,2.415-0.27,3.332
				c-0.026,0.852,0.028,2.36,0.068,3.42c0.064,0.979,0.183,2.348,0.273,2.67c0.109,0.387,0.317,0.504,0.394,0.957
				c0.083,0.514,0.26,1.344,0.299,1.666c0.037,0.322,0.094,0.967,0.2,1.41c0.096,0.379,0.24,0.298,0.303,0.681
				c0.061,0.381,0.078,0.703,0.078,0.703s-0.088,0.144-0.013,0.458c0.068,0.252,0.258,0.354,0.368,0.663
				c0.102,0.245,0.284,0.799,0.336,1.246c0.05,0.447,0.035,0.45,0.155,0.688c0.133,0.302,0.231,0.152,0.36,0.455
				c0.129,0.299,0.151,0.034,0.194,0.416c0.048,0.381,0.087,0.504,0.131,0.557c0.035-0.005,0.22-0.046,0.14-0.418
				c-0.068-0.309-0.155-0.485-0.354-0.966c-0.187-0.419-0.388-1.161-0.433-1.413c-0.042-0.251-0.129-0.434-0.155-0.494
				c-0.028-0.059-0.73-2.295-0.739-2.357c-0.022-0.127-0.246-1.01-0.177-1.146C1.5,72.67,1.54,72.474,1.64,72.851
				c0.109,0.44,0.052,0.445,0.174,0.821c0.12,0.307,0.026,0.771,0.242,1.196c0.228,0.419,0.704,1.896,0.776,2.141
				c0.076,0.245,0.311,0.591,0.58,1.185c0.268,0.527,0.434,0.752,0.636,1.352c0.216,0.659,0.552,0.97,0.53,1.425
				c-0.011,0.454-0.118,0.544-0.039,0.784c0.08,0.238,0.486,1.041,0.897,1.642c0.429,0.591,1.461,1.44,1.901,1.881
				c0.449,0.433,1.389,1.71,1.483,1.358s0.431-0.909,0.602-0.718c0.178,0.191,0.228,0.677,0.625,0.786
				c0.405,0.104,0.881,0.926,1.136,1.266c0.26,0.34,1.123,0.988,1.302,1.164c0.203,0.227,0.377-0.656,0.949,0.649
				c0.563,1.251,0.686,1.382,1.079,2.016c0.371,0.577,1.869,1.896,1.984,2.091c0.112,0.193,0.946,1.008,1.479,0.889
				c0.515-0.177,0.473-0.787,1.071-0.254c0.599,0.523,0.889,0.219,0.985,0.791c0.102,0.576,0.96,1.237,0.458,2.101
				c-0.497,0.81-1.458,2.099-1.467,2.597c-0.041,0.455,0.637,2.041,0.637,2.041s-0.595,0.757-0.198,1.497
				c0.408,0.738,1.858,1.835,2.813,3.766c0.988,1.876,1.049,1.899,2.111,3.05c1.129,1.182,4.171,2.59,4.271,3.232
				c0.12,0.631,0.333,1.246,0.556,1.652c0.231,0.409,0.277,0.447,0.272,0.559c-0.004,0.111-0.022,0.445,0.085,0.719
				c0.109,0.271,0.218,0.65,0.181,0.705c0.011,0.087,0.382,1.198,0.382,1.198s-0.852-0.433-0.652-0.165
				c0.255,0.298,0.7,0.432,0.807,0.607c0.167,0.209,0.209,0.489,0.238,0.559c0.03,0.07-0.166,0.131-0.181,0.156
				c0.037,0.06,0.29,0.49,0.473,0.678c0.131,0.149,0.227,0.239,0.192,0.297c-0.037,0.055,0.179,0.312,0.19,0.414
				c0.015,0.1,0.068,0.377,0.033,0.552c-0.026,0.164-0.113,0.183,0.042,0.306c0.098,0.086,0.333,0.206,0.307,0.241
				c-0.017,0.036-0.183-0.068-0.031,0.06c0.151,0.123,0.414,0.323,0.565,0.45c0.098,0.093-0.216-0.022-0.119,0.068
				c0.1,0.09,0.148,0.136,0.401,0.353c0.259,0.211,0.584,0.438,0.516,0.422c-0.007,0.016-0.412-0.211,0.042,0.057
				c0.059,0.033,0.113,0.066,0.17,0.1l0.007,0.01C35.034,124.676,36.994,125.664,39.007,126.557L39.007,126.557z M65.742,1
				c1.697,0,3.384,0.064,5.051,0.189v0.002c0,0.002-0.068-0.002-0.068-0.002c-0.527-0.017-0.787-0.035-0.787-0.035
				S69.211,1.103,68.753,1.1c-0.462,0.011-0.988-0.035-1.251-0.044c-0.195-0.007-0.592,0.013-0.79,0.029
				c-0.196,0.019,0.265,0.03,0.726-0.001c0.393-0.021,0.527,0.025,1.377,0.046c0.855,0.033,0.855,0.053,1.115,0.086
				c0.264,0.039,0,0.028-0.53,0.092c-0.595,0.092-1.177-0.135-1.507-0.102c-0.329,0.041-0.395,0.052-0.529,0.133
				c-0.197,0.092-0.068,0.064,0.521,0.083c0.592,0.024,0.396-0.075,0.396-0.075s0.588,0.033,0.588,0.057
				c0,0.022-1.053,0.175-1.053,0.175s0.314,0.344,0.314,0.39c-0.004,0.044-1.174,0.197-1.434,0.272
				c-0.194,0.079,0.061,0.193,0.314,0.427c0.313,0.254-0.134,0.243-0.455,0.311c-0.321,0.07-0.257,0.191-0.321,0.375
				c-0.065,0.191,0.506,0.164,0.696,0.129c0.191-0.035,0.953-0.131,1.018-0.099c0.061,0.033-0.582,0.327-0.711,0.458
				c-0.19,0.131,0.877,0.151,1.003,0.133c0.126-0.017,0.632-0.044,0.632-0.044s0.076,1.001,0.008,1.093
				c-0.066,0.092-0.791-0.313-1.221-0.5c-0.434-0.184-1.251,0.208-1.686,0.534c-0.432,0.34,0.549,0.425,0.733,0.46
				c0.185,0.037,1.602,1.25,1.595,1.475c-0.012,0.232-1.613-0.342-1.912-0.445c-0.299-0.102,0.469,0.695,0.938,0.944
				c0.527,0.26,1.094,0.782,0.92,0.768c-0.177-0.013-1.586,0.254-2.114,0.444c-0.523,0.195,1.028,0.699,1.144,0.734
				c0.112,0.035,0.321,0.727,0.321,0.727s-1.25,0.271-1.587-0.059c-0.397-0.326-0.508,0.519-0.508,0.519s-0.222,0.683-0.445,0.436
				c-0.227-0.241-1.836,0.068-1.836,0.068s1.465,0.782,1.906,1.137c0.493,0.361,1.504,1.377,1.919,1.872
				c0.403,0.502-0.805,1.347-1.369,1.578c-0.558,0.233-1.14-0.628-1.14-0.628s-0.556-1.167-1.094-1.325
				c-0.538-0.155-0.504,0.5-0.072,0.716c0.375,0.219-0.917,0.464-1.317,0.7c-0.392,0.235-0.085,0.924,0.867,0.617
				c0.96-0.3,2.907,0.506,2.907,0.506s-6.166,3.344-7.093,3.567c-0.922,0.224-1.655-0.891-1.655-0.891s-0.044,0.569,0.34,1.064
				c0.375,0.504-2.544,2.943-3.07,3.243c-0.524,0.3-0.477,1.121-0.924,0.521c-0.456-0.591-1.989,1.353-2.512,1.46
				c-0.484,0.094-1.154,1.612-1.049,2.326c0.114,0.722-1.184,1.675-1.903,2.458c-0.731,0.798-1.925,5.321-1.925,5.321
				c0.024,0.044-0.427,0.229-0.427,0.229s-0.515-0.585-0.7-1.217c-0.173-0.627-0.602-0.005-0.807-0.458
				c-0.238-0.429-1.529,0.495-1.696-0.009c-0.159-0.5,0.462-0.112,0.706-0.893c0.231-0.762-2.616-3.401-2.924-4.018
				c-0.305-0.611-0.124-0.839,1.315-1.329c1.465-0.491-0.617-0.635-0.913-0.933c-0.255-0.317-1.178-1.226-1.14-1.618
				c0.046-0.392-0.621-1.842-0.397-2.256c0.231-0.412,0.556-1.294,1.249-1.765c0.648-0.445,1.223-0.93,1.352-1.601
				c0.094-0.639,0.632-0.88,0.704-1.34c0.083-0.457-0.065-0.384-0.84-0.489c-0.735-0.114-0.129,0.839-0.129,0.839
				c-0.617,0.681-0.617,0.681-1.271,1.39c0,0-1.035-1.202-1.003-1.598c-0.011-0.368,1.526-0.296,1.491-0.607
				c0.019-0.333-1.4-0.157-1.122-0.468c0.281-0.311,0.937-0.878,1.637-0.359c0.748,0.526,1.134,0.313,1.227-0.134
				c0.098-0.442-0.345-0.734-0.216-1.528c0.094-0.752-0.713-0.182-1.313,0.021c-0.603,0.206-1.443,0.946-1.568,0.58
				c-0.072-0.388,0.064-0.5,0.364-0.804c0.253-0.276,0.806-0.333,0.575-0.672c-0.279-0.304,0.081-0.232,0.475-0.629
				c0.347-0.374-0.076-0.026-0.386-0.541c-0.303-0.492-1.06-0.004-0.545-0.449c0.521-0.438-0.088-0.738-0.085-0.873
				c0.061-0.158-0.157-0.469-0.225-0.617c-0.068-0.144,0.003-0.57,0.199-1.031c0.209-0.447-0.458-0.249-0.855-0.497
				c-0.443-0.195-1.367-0.057-1.663-0.078c-0.351,0.017-1.347,0.734-2.509,1.145c-1.042,0.375-1.479,0.39-1.688,0.289
				c-0.202-0.086,0.061-0.153,0.018-0.354c-0.033-0.184-0.397-0.029-0.216-0.237c0.183-0.201,0.717-0.324,0.92-0.493
				c0.262-0.197,0.262-0.068,0.789-0.464c0.477-0.354,0.791-0.317,1.242-0.576c0.517-0.285-0.216,0.007-0.289,0.007
				c-0.072,0.003-1.09,0.591-1.435,0.775c-0.405,0.217-0.672,0.274-0.329,0.083c0.401-0.219,0.344-0.188,0.394-0.366
				c0.122-0.186-0.534,0.122-0.447,0.006c0.155-0.127,1.897-1.051,2.305-1.261c0.353-0.178,0.288-0.164,0.822-0.419
				c0.477-0.221,1.252-0.58,1.605-0.754c0.358-0.169,0.658-0.308,1.079-0.495c0.181-0.08,0.178-0.083,0.12-0.056l-0.011-0.007
				c7.81-3.39,16.407-5.315,25.445-5.424c-0.137,0.003-0.314,0.011-0.512,0.025c-0.526,0.046,0.591,0.011,0.855-0.009
				C65.452,1.019,65.58,1.005,65.648,1H65.742L65.742,1z M89.973,5.588c0.481,0.191,0.965,0.389,1.441,0.591l0.012,0.019
				c0.061,0.026,0.122,0.052,0.18,0.077c0.422,0.188,1.018,0.468,1.018,0.468s-0.172-0.094-0.111-0.074l0.004-0.011
				c0.533,0.237,1.064,0.48,1.59,0.73l-0.04-0.005c0,0,0,0-0.058-0.03c-0.598-0.278-0.84-0.381-0.962-0.423
				c-0.072-0.007,0.883,0.433,1.356,0.668c0.408,0.209,1.028,0.589,1.312,0.747c0.289,0.158,0.213,0.166,0.314,0.254
				c0.102,0.09,0.65,0.313,0.996,0.502c0.343,0.191,0.18,0.214,0.264,0.332c0.083,0.123-0.199,0.225-0.453,0.147
				c-0.251-0.078-0.016-0.238-0.096-0.367c-0.083-0.122-0.802-0.16-1.307-0.46c-0.45-0.267-0.245-0.239-0.177-0.372
				c0.054-0.111-0.581-0.3-0.563-0.341c-0.039-0.064-0.549-0.368-0.765-0.526c-0.159-0.125,0.091,1.012,0.155,1.178
				c0.12,0.199-0.047,0.387-0.497,0.142c-0.454-0.243-2.046-1.261-2.429-1.513c-0.387-0.249,0.556,0.022,0.617-0.123
				c0.061-0.133-0.801-0.269-1.05-0.525c-0.31-0.267,0.181-0.09,0.202-0.138c0.078-0.021,0.646,0.153,0.498-0.002
				c-0.151-0.146-0.932-0.149-1.18-0.228c-0.25-0.08-0.712-0.337-0.873-0.455c-0.166-0.114-0.086,0.041,0,0.179
				c0.021,0.12-0.697-0.372-1.018-0.639c0,0-0.181-0.072-0.238-0.1c-0.061-0.029-0.371-0.13-0.291-0.156
				c0.137,0,0.724,0.3,0.682,0.227c-0.045-0.07-0.455-0.28-0.813-0.447c-0.36-0.162-0.534-0.267-0.772-0.385
				c-0.179-0.086,1.375,0.449,1.812,0.605c0.429,0.162,1.223,0.482,1.102,0.431c-0.121-0.05,0.002-0.009,0.129,0.035L89.973,5.588
				L89.973,5.588z M114.209,22.216c0.494,0.532,0.978,1.071,1.451,1.622l0.003,0.004l0.039,0.051
				c0.166,0.206,0.257,0.385,0.763,1.077c0.52,0.758,1.92,2.329,1.84,2.387c-0.155,0.035-0.932-0.854-0.932-0.854
				c-0.303-0.34-0.623-0.922-1.006-1.369c-0.391-0.444-1.23-1.272-1.137-1.265c0.043-0.039,0.213-0.011,0.064-0.232
				c-0.15-0.215-0.548-0.738-0.486-0.705c0.102,0.086,0.201,0.169-0.016-0.074C114.646,22.697,114.393,22.419,114.209,22.216
				L114.209,22.216z M121.833,32.253c0.713,1.154,1.393,2.33,2.034,3.53h-0.008c-0.031-0.057-0.158-0.289-0.035-0.057
				c0.094,0.175,0.342,0.637,0.342,0.637l0.029,0.059h0.008c4.709,9.034,7.37,19.297,7.37,30.176c0,7.008-1.108,13.759-3.149,20.09
				l-0.008-0.016c0.098-0.312,0.196-0.628,0.268-0.88c0.17-0.634,0.477-1.843,0.498-2.038c0.018-0.198-0.021-0.211,0.079-0.656
				c0.083-0.385,0.382-2.061,0.423-2.252c0.047-0.258,0.292-1.408,0.22-1.222c-0.071,0.185-0.364,0.39-0.364,0.39
				s-0.055-0.87-0.047-1.066c0.014-0.262-0.264-1.491-0.47-1.526c-0.228,0.026-0.852,0.624-0.94,0.545
				c-0.094-0.081-1.142,0.296-1.217-0.096c-0.093-0.331-0.396-1.382-0.52-1.154c-0.118,0.229-0.367,0.679-0.576,0.456
				c-0.203-0.279-1.855-2.229-1.949-2.418c-0.09-0.248-0.428-0.412-0.537-0.252c-0.102,0.104-0.12,0.394-0.08,0.516
				c0.035,0.121,0.201,0.675,0.258,0.861c0.042,0.244,0.479,1.511,0.561,1.705c0.088,0.197,0.455-0.215,0.531,0.224
				c0.059,0.499-0.24,0.986-0.068,1.45c0.18,0.406,0.34-0.173,0.537-0.193c0.191-0.021,0.537-0.26,0.643-0.488
				c0.094-0.167,0.545-1.262,0.632-1.062c0.087,0.204,0.208,0.102,0.205,0.477c-0.007,0.374-0.039,0.745,0.019,0.757
				c0.053,0.011,0.418,0.273,0.533,0.488c0.102,0.275,0.281,0.379,0.277,0.57c-0.004,0.193-0.529,2.133-0.645,2.168
				c-0.12,0.033-0.408-0.104-0.408,0.283c0.015,0.324,0.148,0.49-0.037,0.764c-0.201,0.334-0.551,0.624-0.768,1.079
				c-0.205,0.392-0.967,0.997-1.754,1.964c-0.836,0.996-2.316,2.365-2.518,2.477c-0.205,0.111-1.469,0.994-1.512,0.469
				c-0.055-0.525-0.479-2.781-0.479-2.781s-1.495-1.776-1.292-2.689c0.198-0.911,0.277-1.741-0.098-2.244
				c-0.389-0.498-1.26-3.213-1.403-3.616c-0.144-0.401-0.296-1.946-0.454-2.336c-0.159-0.386-0.311,0.974-0.3,1.286
				c0.015,0.315-0.39,0.076-0.477-0.196c-0.098-0.225-0.556-0.87-0.567-0.722c-0.002,0.104,0.359,0.984,0.431,1.103
				c0.062,0.165,0.228,0.2,0.317,0.687c0.091,0.488,0.277,1.425,0.387,1.771c0.104,0.345,0.595,2.374,0.648,2.446
				c0.051,0.07,0.181,0.998,0.264,1.641c0.076,0.647,0.391,2.195,0.527,2.42c0.11,0.277,1.363,0.749,1.26,1.132
				c-0.105,0.381-0.258,0.806-0.016,1.028c0.238,0.22,0.257,1.279,0.367,1.766c0.125,0.435,0.186,1.101,0.712,0.887
				c0.541-0.275,3.81-2.33,3.495-1.463c-0.324,0.861-1.479,3.847-1.992,4.623c-0.515,0.771-1.774,2.252-2.475,3.185
				c-0.709,0.921-3.12,3.896-3.6,4.664c-0.482,0.768-0.412,1.575-0.679,2.139c-0.273,0.563-0.429,0.829-0.394,0.937
				c0.037,0.107,0.213,0.957,0.047,1.385c-0.209,0.475-1.467,2.952-1.742,3.213c-0.273,0.262-2.097,1.83-2.432,2.203
				c-0.295,0.328-0.999,0.862-1.032,1.105c-0.083,0.281,0.325,0.163,0.068,0.537c-0.212,0.331-1.02,1.527-1.321,1.769
				c-0.349,0.278-0.863,0.56-1.033,0.854c-0.17,0.293-0.231,0.423-0.545,0.745c-0.322,0.318-0.516,0.483-1.025,0.983
				c-0.562,0.529-1.162,1.131-1.598,1.516c-0.391,0.345-1.693,1.302-2.552,1.762c-0.862,0.445-1.847,0.809-2.524,1.178
				c-0.732,0.398-1.227,0.567-1.451,0.696c-0.219,0.13-0.801,0.271-0.852,0.179c0.008-0.125-0.311-0.312-0.311-0.312
				c0.047-0.185,0.5-0.675,0.307-0.896c-0.201-0.234-0.385-1.085-0.646-1.429c-0.266-0.36-0.295-1.036-0.104-1.556
				c0.18-0.529,0.401-0.857,0.357-1.053c-0.047-0.195-0.379-0.416-0.35-0.596c0.031-0.182-0.037-0.75-0.207-0.928
				c-0.172-0.18-0.969-0.531-0.779-0.871c0.192-0.342,1.094-2.676,1.252-2.836c0.113-0.127,1.541-1.131,1.514-1.549
				c-0.033-0.419-0.294-0.874-0.373-0.986c-0.035-0.144-0.201-0.554-0.068-0.73c0.086-0.147,0.291-0.401,0.185-0.543
				c-0.147-0.114-0.462-0.715-0.45-0.873c-0.033-0.127-0.049-1.324-0.6-1.801c-0.559-0.496-2.285-0.809-1.834-1.631
				c0.438-0.819,0.863-1.994,0.896-2.316c0.027-0.322,0.858-1.511,0.398-1.763c-0.493-0.229-0.891-0.618-1.359-0.501
				c-0.5,0.141-1.094,0.37-1.389,0.139c-0.296-0.234-1.011-1.195-1.408-1.237c-0.395-0.044-1.553-0.114-1.553-0.114
				s-0.896,0.245-1.438,0.643c-0.504,0.373-1.587,1.174-2.403,1.034c-0.837-0.13-1.94-0.156-2.462,0.07
				c-0.525,0.223-2.26,0.688-3.024,0.799c-0.798,0.121-5.167-2.958-5.586-3.591c-0.407-0.643-1.247-2.469-1.659-2.787
				c-0.379-0.329-1.89-0.805-1.756-1.557c0.14-0.759,0.793-2.762,0.93-3.02c0.156-0.263,0.625-3.158,0.455-3.855
				c-0.178-0.697-0.518-2.193-0.29-2.374c0.229-0.177,2.252-3.894,3.079-4.618c0.822-0.73,2.912-2.282,2.912-2.282
				s-0.182-0.396,0.276-1.261s0.556-1.812,1.14-2.4c0.59-0.594,1.445-1.232,2.028-1.916c0.584-0.687,0.992-1.327,1.038-1.561
				c0.045-0.219,0.268-0.811,0.578-0.359c0.307,0.451,0.971,0.401,1.324,0.405c0.354,0.002,2.371-0.071,2.938-0.298
				c0.562-0.218,1.561-1.129,2.033-1.164c0.474-0.061,2.219-0.46,3.566-0.559c1.335-0.085,3.391-0.682,4-0.359
				c0.603,0.302,1.324,0.62,1.125,0.838c-0.201,0.217-0.768,0.689-0.33,1.496c0.436,0.764,0.5,1.831,0.731,2.303
				c0.231,0.479,0.427,0.651,1.136,0.676c0.707,0.021,1.26-0.387,1.783,0.358c0.529,0.695,2.062,1.351,3.172,1.581
				c1.1,0.186,1.644-2.984,2.641-2.396c0.974,0.609,1.652,1.283,2.633,1.529c0.971,0.205,2.584-0.01,2.584-0.01
				s0.412-0.896,1.113-0.219c0.693,0.646,0.78,0.809,1.224,0.479c0.435-0.289,0.993-0.816,0.993-0.816s-0.044-1.522,0.213-2.255
				c0.246-0.688,0.523-1.433,0.584-1.633s0.249-1.211-0.25-1.075c-0.504,0.133-1.053,0.856-1.322,0.597
				c-0.275-0.208-0.795-0.812-1.203-0.487c-0.41,0.27-0.988,0.576-1.211,0.517c-0.23-0.011-1.953,0.624-1.953,0.624
				s-0.67-0.841-0.598-1.367c0.072-0.486,0.412-0.79,0.347-1.281c-0.068-0.49-0.477-1.016-0.241-1.509
				c0.234-0.497,0.559-1.588,0.76-1.691c0.195-0.149-1.35,0.526-1.521,0.58c-0.17,0.096-0.131,1.182-0.299,1.186
				c-0.174,0.003-1.307-1.269-1.445-0.924c-0.141,0.341-0.1,0.924,0.113,1.631c0.213,0.672-0.605,1.454-0.605,1.454
				s-1.116-0.872-1.116-1.113c0-0.281-0.966-2.788-0.931-2.989c0.037-0.201-0.418-0.987-0.648-1.276
				c-0.228-0.247-2.753-1.923-3.266-2.457c-0.512-0.517-1.5-2.5-1.686-2.194c-0.187,0.3-0.57,0.893-0.57,0.893
				s0.328,0.731,0.611,0.952c0.277,0.227,0.255,0.97,1.398,1.774c1.131,0.788,3.156,2.426,3.309,2.645
				c0.15,0.223-0.064,1.2-0.064,1.2s-1.252-1.067-1.246-0.657c0,0.372,0.688,1.134,0.496,1.327c-0.189,0.23-1.408,1.593-1.599,1.408
				c-0.192-0.218-0.39,0.029-0.354,0.21c0.041,0.179-0.021,0.713-0.311,0.771c-0.291,0.059-2.389-1.023-2.128-1.188
				c0.257-0.164,1.415-0.368,1.742-0.403c0.333-0.037,0.776,0.534,0.812,0.212c0.039-0.287,0.212-0.863,0.288-1.009
				c0.076-0.147,0.325-0.445-0.004-0.795c-0.328-0.344-3.419-2.608-3.705-3.033c-0.285-0.451-1.894-2.831-2.014-2.833
				c-0.121-0.002-0.746,0.437-0.973,0.615c-0.217,0.207-1.354,1.522-1.938,1.263c-0.583-0.272-1.734-1.192-2.081-0.558
				c-0.354,0.615-0.398,0.755-0.094,1.033c0.297,0.259,0.134,0.633,0.047,0.727c-0.083,0.118-0.613,0.134-0.968,0.697
				c-0.36,0.545-1.003,0.823-1.237,1.016c-0.233,0.167-0.762,0.703-0.801,1.471c-0.042,0.764,0.174,0.352-0.129,0.9
				c-0.305,0.508-0.828,1.491-1.566,1.805c-0.746,0.332-2.211,0.131-2.521,0.38c-0.311,0.239-0.924,0.644-1.025,0.576
				c-0.102-0.083-0.866-0.778-0.955-0.919c-0.09-0.136-0.842-0.445-1.065-0.336c-0.228,0.103-1.302-0.512-1.327-0.693
				c-0.021-0.18-0.898-2.247-0.649-2.849c0.241-0.618,0.733-1.769,0.708-2.205c-0.023-0.427-0.359-1.15-0.359-1.15
				s-0.388-0.675,0.076-0.903c0.456-0.241,0.748-0.727,1.108-0.582c0.36,0.138,0.661,0.147,1.053,0.155
				c0.39-0.002,1.123-0.243,1.365-0.105c0.231,0.125,0.72,0.357,1.298,0.306c0.566-0.062,2.252,0.015,2.338-0.105
				c0.086-0.101,0.775-1.734,0.506-2.452c-0.275-0.72-0.325-1.588-0.727-1.828c-0.393-0.232-2.861-2.619-2.861-2.619
				s0.48-0.317,0.734-0.366c0.266-0.03,2.305,0.895,2.041,0.565c-0.277-0.348-0.422-1.283-0.234-1.329
				c0.191-0.046,1.1-0.037,1.303-0.018c0.188-0.002,1.475-0.357,1.637-0.633c0.16-0.28,0.791-1.279,1-1.465
				c0.227-0.16,0.321-0.637,0.916-0.992c0.578-0.377,1.396-2.8,1.396-2.8s0.824-1.601,0.942-1.423
				c0.14,0.205-0.205,1.583,0.133,1.41c0.362-0.142,0.599-0.545,0.748-0.747c0.165-0.173,0.565-1.412,0.346-2.095
				c-0.228-0.69-0.068-2.102,0.201-2.24c0.242-0.166,1.411-1.439,1.566-1.029c0.151,0.409,0.974,2.187,1.332,1.905
				c0.378-0.25,0.28-0.379,0.201-0.582c-0.05-0.169-0.485-0.876-0.603-1.213c-0.114-0.336-0.506-2.078-0.57-2.135
				c-0.061-0.055-0.387-0.213-0.605-0.002c-0.194,0.245-0.736,0.99-1.262,1.272c-0.499,0.316-1.211,0.186-1.357,0.169
				c-0.148-0.018-2.371-2.704-2.303-3.162c0.062-0.456,0.441-0.41,0.213-0.646c-0.193-0.209-0.414-0.651-0.41-0.859
				c0.004-0.204-0.133-0.981,0.021-1.047c0.119-0.09,0.4-1.323,0.623-1.553c0.188-0.254,1.062-1.673,1.469-1.997
				c0.445-0.289,1.365-1.206,1.635-1.169c0.271,0.039,0.356,0.002,0.557-0.574c0.146-0.604,0.79-0.068,0.703-0.679
				c-0.102-0.615-0.23-1.537-0.098-1.633c0.178-0.066,0.317-0.96,0.635-1.132c0.314-0.167,0.736-0.833,0.822-0.953
				c0.087-0.116,0.394-0.628,0.285-0.757c-0.064-0.097-0.263-0.473-0.447-0.399c-0.141,0.107-0.416,0.214-0.523,0.274
				c-0.108,0.061-0.461-0.179-0.432,0.153c0.027,0.335,0.299,0.5,0.23,0.508c-0.112-0.025-0.365-0.035-0.487-0.136
				c-0.167-0.132-0.429-0.592-0.147-0.819c0.234-0.25,0.771-0.563,0.9-0.653c0.08-0.118,0.076-0.595,0.348-0.803
				c0.273-0.202,0.652-0.554,0.762-0.517c0.11,0.039,0.382,0.142,0.659,0.044c0.228-0.125,0.609-0.469,0.783-0.51
				c0.17-0.042,0.031-0.247,0.159-0.423c0.125-0.176,0.303-0.425,0.552-0.272c0.202,0.119,0.655,0.094,0.884,0.278
				c0.184,0.151,0.23,0.086,0.371-0.002c0.139-0.088,0.264-0.354,0.426-0.37c0.159-0.017,2.057,0.092,2.328,0.335
				c0.273,0.243,1.409,0.495,1.409,0.495s0.379,0.122,0.692,0.413c0.271,0.25,1.624,0.953,1.17,1.174
				c-0.469,0.245-0.266,0.471-0.266,0.471s0.402,0.544,0.738,0.366c0.328-0.167,0.563,0.029,0.945,0.337
				c0.338,0.269,1.258,0.653,1.703,1.084c0.396,0.39,1.388,1.154,1.901,1.695c0.508,0.543,1.046,1.305,1.302,1.573
				c0.261,0.269,0.606,0.466,0.88,0.882c0.307,0.468,0.192,0.718,0.228,1c0.037,0.285-0.324,0.71-0.451,0.732
				c-0.129,0.022-0.383,0.142-0.533,0.028c-0.152-0.112-0.675-0.389-1.01-0.659c-0.336-0.269-1.941-1.174-1.941-1.174
				s-0.525-0.249-0.188,0.239c0.34,0.486,0.973,0.878,0.973,0.878s0.574,0.064,0.47,0.532c-0.118,0.473-0.22,0.403-0.028,0.699
				c0.228,0.344,0.3,0.732,0.408,0.944c0.07,0.166,0.26,0.39,0.523,0.629c0.303,0.287,0.595,0.363,0.678,0.663
				c0.083,0.302,0.285,0.374,0.367,0.388c0.117,0.063,0.246-0.607,0.102-0.721c-0.147-0.114-0.45-0.332-0.787-0.596
				c-0.34-0.264-0.295-0.442-0.347-0.698c-0.017-0.21-0.085-0.681,0.503-0.083c0.584,0.604,0.787,0.677,0.962,0.918
				c0.174,0.243,0.405,0.884,0.571,0.692c0.129-0.236,0.137-0.536,0.029-0.825c-0.117-0.292-0.502-0.532-0.502-0.755
				c-0.008-0.221,0.486-0.665,0.62-0.764c0.133-0.098,0.273-0.821,0.249-0.957c0.008-0.085,0.205-0.157,0.387,0.407
				c0.137,0.517,0.082,0.48,0.266,0.651c0.182,0.175,0.396,0.631,0.465,0.657c0.037-0.024,0.06-0.574-0.082-0.858
				c-0.141-0.281-0.217-0.46-0.437-0.685c-0.224-0.223-0.458-0.357-0.411-0.629c0.003-0.318,0.047-0.512,0.047-0.512
				s-0.144-0.283-0.336-0.615c-0.189-0.332-0.324-0.546-0.482-0.742c-0.203-0.243,0.342,0.048,0.527,0.225
				c0.223,0.227,0.62,0.477,0.864,0.77c0.241,0.292,0.47,0.6,0.524,0.799c0.014,0.147-0.021,0.173-0.17,0.283
				c-0.151,0.114-0.344-0.057-0.195,0.146c0.188,0.254,0.26,0.278,0.514,0.639c0.247,0.362,0.648,0.386,0.651-0.006
				c-0.007-0.384-0.159-0.432,0.102-0.543c0.242-0.096,0.483-0.668,0.577-0.657c0.051-0.039,0.369,0.132,0.513,0.269
				s0.122,0.309,0.28,0.515c0.156,0.208,0.068,0.269,0.02,0.304c-0.016,0.089-0.113-0.001-0.058,0.12
				c0.05,0.121,0.45,0.396,0.439,0.326c-0.054-0.122-0.083-0.181-0.044-0.286c-0.002-0.156,0.074-0.13,0.074-0.13
				c-0.196-0.261-0.196-0.261-0.352-0.468c0,0-0.054-0.281,0.191,0.022c0.248,0.305,0.372,0.458,0.498,0.607
				c0.121,0.153,0.209,0.173,0.386,0.368c0.137,0.144,0.124,0.078,0.026-0.094c-0.065-0.116-0.049-0.206-0.049-0.206
				c0.135,0.227,0.135,0.227,0.268,0.451c0,0,0.217,0.327,0.342,0.479c0.091,0.097,0.391,0.53,0.022-0.09
				c-0.378-0.615-0.27-0.451-0.722-1.095c-0.457-0.639-0.371-0.539-0.693-0.955c-0.323-0.413-0.288-0.519-0.288-0.519
				s0.412,0.591,0.65,0.905c0.238,0.315,0.573,0.722,0.916,1.202c0.34,0.486,0.443,0.651,0.806,1.202
				c0.316,0.497,0.1,0.167,0.558,0.887l0.037,0.052V32.253L121.833,32.253z M9.256,32.894c1.418-2.359,2.981-4.624,4.681-6.775
				c-0.207,0.274-0.6,0.829-0.704,0.987c-0.141,0.223-0.09,0.668-0.167,0.854c-0.116,0.241-0.639,0.666-0.844,0.924
				c-0.202,0.256-0.12,0.394-0.17,0.598c0,0-0.281,0.361-0.342,0.398c-0.098,0.09-0.434,0.338-0.477,0.228
				c-0.03-0.098-0.271,0.292-0.643,0.834c-0.368,0.544-0.682,0.964-0.866,1.239c-0.141,0.221-0.327,0.491-0.466,0.714H9.256
				L9.256,32.894z M15.267,24.489l0.17-0.2c0.039-0.035,0.113-0.1,0.091-0.054c0.018,0.013,0.436-0.491,0.515-0.596
				c0.068-0.084,0.124-0.182,0.212-0.3c0.29-0.326,0.578-0.649,0.87-0.972c-0.007,0.017-0.076,0.1-0.094,0.131
				c-0.021,0.066,0.617-0.683,0.935-1.014c0.322-0.332-0.159,0.21-0.242,0.311c-0.083,0.101-0.682,0.799-0.944,1.093
				c-0.299,0.346,0.024,0.108-0.048,0.307c-0.064,0.207-0.848,1.169-0.966,1.325c-0.159,0.208-0.757,0.898-0.905,1.031
				c-0.105,0.083,0.14-0.308,0.262-0.545C15.247,24.782,15.099,24.725,15.267,24.489L15.267,24.489z M19.283,20.125
				c0.436-0.435,0.881-0.859,1.332-1.281c0.022-0.009,0.076-0.044-0.022,0.063c-0.174,0.2-0.451,0.479-0.652,0.647
				c-0.199,0.171-0.668,0.633-0.639,0.569C19.297,20.118,19.283,20.129,19.283,20.125L19.283,20.125z M21.812,17.748
				c0.303-0.271,0.602-0.54,0.913-0.803c-0.111,0.094-0.187,0.171-0.137,0.153c0.079-0.009,0.151-0.026,0.151-0.026
				s0.148-0.13,0.499-0.429c0.399-0.338,0.137-0.041,0.137-0.041s0.429-0.304,0.909-0.651c0.484-0.339,0.537-0.48,0.794-0.683
				c0.257-0.204,0.163-0.112,0.148-0.027c-0.015,0.092,0.689-0.497,0.909-0.639c0.224-0.142,0.462-0.041,0.523,0.041
				c0.12,0.049-0.163,0.215-0.565,0.543c-0.404,0.329,0.024,0.138,0.129,0.169c0.054,0.072-0.802,0.764-1.049,0.867
				c-0.246,0.106-0.931,0.499-0.938,0.388c-0.003-0.107-0.768,0.602-0.826,0.538c-0.052-0.062-0.366,0.37-1.01,0.722
				c-0.632,0.375-0.534,0.287-0.628,0.278c-0.044-0.044-0.65,0.556-0.678,0.522c-0.029-0.031-0.317,0.239-0.451,0.286
				c-0.079,0.013,0.516-0.6,0.608-0.692c0.081-0.075,0.384-0.352,0.547-0.499l0.009-0.009L21.812,17.748L21.812,17.748z
				 M23.882,15.968c0.923-0.76,1.873-1.495,2.843-2.203l0.011-0.009v-0.002c0.144-0.101,0.321-0.232,0.477-0.344l0.015-0.011
				l0.024-0.018l0.011-0.009l0.015-0.009l0.011-0.007l0.007-0.004l0.019-0.015l0.011-0.009l0.004-0.001l0.013-0.011l0.008-0.004
				l0.011-0.007l0.011-0.009l0.011-0.007l0.011-0.008l0.032-0.025l0.003-0.002c0.059-0.041,0.207-0.146,0.355-0.25l0.007-0.007
				c1.381-0.97,2.798-1.888,4.252-2.753h0.008c0.055-0.033,0.286-0.164,0.12-0.055c-0.271,0.189-0.51,0.3-0.848,0.502
				c-0.34,0.204,0.068-0.009-0.214,0.16c-0.277,0.169-0.731,0.438-0.955,0.574c-0.283,0.175,0.004,0.009,0.068-0.015
				c0.065-0.021-0.249,0.221-0.862,0.604c-0.61,0.388-0.443,0.284-0.671,0.416c-0.17,0.1-0.173,0.098-0.177,0.088
				c-0.007-0.005-0.541,0.377-0.863,0.605c-0.317,0.232,0.12-0.059,0.336-0.21c0.216-0.149,0.336-0.206,0.515-0.291
				c0.188-0.079,0.643-0.34,0.78-0.374c0.196-0.059-0.299,0.257-0.558,0.458c-0.207,0.164-0.26,0.203-0.722,0.571
				c-0.404,0.333-0.512,0.292-0.772,0.379c-0.202,0.061-0.473,0.247-0.686,0.399s-0.208,0.157-0.321,0.229
				c-0.057,0.033-0.118,0.059-0.137,0.037c-0.064,0.022-0.264,0.197-0.412,0.326c-0.201,0.169-0.631,0.47-0.552,0.359
				c0.091-0.096-0.515,0.411-0.829,0.65C24.067,15.83,23.919,15.944,23.882,15.968L23.882,15.968z M32.25,10.118
				c0.198-0.116,0.392-0.234,0.591-0.348l0.003,0.005c-0.116,0.064-0.284,0.164-0.513,0.296
				C32.311,10.085,32.281,10.102,32.25,10.118L32.25,10.118z M20.376,32.903c0.083,0.203,0.167,0.261,0.353,0.051
				c0.188-0.208,0.495-0.752,0.271-0.642c-0.227,0.112-0.318,0.114-0.36,0.153c-0.076,0.084-0.196,0.206-0.222,0.258
				C20.395,32.774,20.376,32.903,20.376,32.903L20.376,32.903z M18.662,35.354c-0.065,0.294-0.042,0.576,0.125,0.418
				c0.199-0.205,0.552-0.438,0.495-0.748c-0.054-0.309,0.109-0.675-0.155-0.379C18.828,34.988,18.662,35.354,18.662,35.354
				L18.662,35.354z M16.338,35.353c0.048,0.784,0.553,0.28,0.776,0.013c0.261-0.312,1.138-1.113,0.756-1.161
				c-0.408,0.004-0.752,0.055-0.915,0.436C16.796,35.021,16.338,35.353,16.338,35.353L16.338,35.353z M22.814,25.408
				c-0.187,0.392-0.534,0.884-0.031,0.944c0.5,0.072,1.027-0.313,1.241-0.758c0.216-0.445,0.187-1.145-0.167-0.913
				c-0.314,0.191-0.613,0.315-0.729,0.53c-0.159,0.261-0.054,0.031-0.087,0.002c-0.031-0.029-0.098-0.011-0.129,0.041
				C22.879,25.303,22.814,25.408,22.814,25.408L22.814,25.408z M22.079,85.381c-0.227,0.201-1.756,0.221-1.302,0.828
				c0.471,0.645,0.924,0.385,1.334,0.621c0.434,0.271,1.184,0.596,1.215,0.422c0.033-0.174,0.009-0.628,0.354-0.482
				c0.325,0.1,1.696-0.016,1.58-0.158c-0.133-0.187-1.295-1.346-1.814-1.366c-0.534-0.069-0.663-0.116-0.841,0.164
				C22.414,85.648,22.079,85.381,22.079,85.381L22.079,85.381z M14.199,82.123c0.127-0.148,1.215-1.347,1.631-0.814
				c0.429,0.572,1.363,0.494,1.692,0.656c0.329,0.16,1.941,1.131,2.237,1.647c0.295,0.516,0.946,0.99,0.504,1.167
				c-0.417,0.221-1.557,0.189-2.07-0.425c-0.493-0.576-1.201-1.304-1.631-1.377c-0.439-0.129-1.409-0.532-1.507-0.392
				c-0.098,0.142,0.285,0.465-0.137,0.322c-0.419-0.148-0.682-0.347-0.769-0.432C14.059,82.393,14.214,82.176,14.199,82.123
				L14.199,82.123z M90.098,64.798c0,0-0.959,0.657-1.021,0.823c-0.064,0.142,0.148,0.672,0.299,0.552
				c0.15-0.144,0.492-0.73,0.617-0.784c0.131-0.055,0.279-0.162,0.727-0.011c0.447,0.131,0.487-0.28,0.719-0.473
				c0.234-0.197,1.074-0.07,0.548-0.64c-0.532-0.575-0.87-0.665-1.058-0.363c-0.191,0.298-0.613,0.906-0.613,0.906
				C90.207,64.815,90.207,64.815,90.098,64.798L90.098,64.798z M95.945,60.653c-0.316,0.556-0.415,0.88-0.14,1.356
				c0.267,0.453,0.333,0.874,0.046,1.031c-0.284,0.184-1.041,0.094-0.814,0.51c0.23,0.421,0.742,0.738,0.56,1.141
				c-0.181,0.427,0.187,1.158,0.187,1.158s1.181,0.655,1.102-0.245c-0.088-0.867,0.108-1.911-0.012-2.089
				c-0.121-0.204-0.491-0.289-0.256-1.097c0.238-0.792,0.145-1.318-0.035-1.541C96.393,60.629,95.969,60.71,95.945,60.653
				L95.945,60.653z M116.031,26.652c0.28,0.594,0.764,1.111,0.92,1.235c0.115,0.072,0.51,0.101,0.174-0.375
				c-0.337-0.473-0.822-0.994-0.875-0.954C116.201,26.599,116.031,26.652,116.031,26.652L116.031,26.652z M64.918,26.135
				c0.571,0.291,1.748-0.033,1.415,0.508c-0.364,0.548-0.602,0.622-0.404,0.915c0.231,0.296,1.331-0.031,1.476,0.339
				c0.137,0.374,3.18,0.221,3.18,0.221s2.597-1.402,2.936-1.866c0.383-0.453,1.342-0.915,0.426-1.756
				c-0.908-0.827-1.819-1.852-2.536-1.526c-0.746,0.324-1.973,0.819-2.756,0.88c-0.823,0.061-2.01-0.502-2.01-0.502
				s0.249-1.259-0.737-0.583c-0.999,0.687-1.647,1.875-1.476,2.087c0.135,0.213,1.592,0.389,1.592,0.389s-2.017,0.469-1.84,0.793
				C64.358,26.356,64.918,26.135,64.918,26.135L64.918,26.135z M81.482,47.271c-0.174,0.252-2.269,1.772-2.666,1.376
				c-0.423-0.409-1.76-1.213-1.138-1.373c0.617-0.164,1.544-0.405,1.257-1.065c-0.281-0.654-1.185-1.322-0.975-1.705
				c0.213-0.381,2.045-1.101,2.045-1.101s1.328-0.849,1.383-0.51c0.071,0.352,0.616,0.357,0.635,0.824
				c0.031,0.479-0.303,1.484-0.303,1.484s-0.094,0.738-0.037,1.253C81.731,46.967,81.482,47.271,81.482,47.271L81.482,47.271z
				 M83.542,46.243c-0.102,1.069-0.046,1.125-0.342,1.334c-0.302,0.21-0.037,0.302,0.097,0.605c0.135,0.302,1.062,0.21,0.548,0.674
				c-0.508,0.466-2.524,1.37-1.765,1.697c0.758,0.33,3.75-0.344,3.75-0.344s2.504,0.044,2.777-0.435c0.285-0.46-0.371-1.084,0-1.454
				c0.373-0.372,0.517-0.681,0.461-1.065c-0.061-0.387-0.421-2.051-1.204-2.511c-0.776-0.449-3.653-3.718-3.388-3.819
				c0.246-0.116,2.074-0.893,1.274-1.513c-0.779-0.599-2.104-0.665-1.993-1.023c0.109-0.361,0.65-0.891,0.65-0.891
				c-0.465-0.23-0.465-0.23-0.935-0.46c0,0-0.862,0.252-1.151,0.482c-0.313,0.217-0.566,0.33-0.934,0.245
				c-0.395-0.1-1.115,0.239-1.115,0.239s1.094,0.808,0.979,1.012c-0.115,0.205-0.992,0.959-0.992,0.959
				c0.41,0.197,0.41,0.197,0.825,0.396c-0.068,0.231-0.068,0.231-0.163,0.449c0,0,1.215-0.407,0.939,0.088
				c-0.303,0.48-0.689,0.142-0.633,0.562c0.053,0.416,0.492,0.436,0.368,0.681c-0.126,0.247,1.077,0.035,1.097,0.417
				c0.02,0.381,0.682-0.186,0.527,0.475c-0.141,0.675-0.391,1.049-0.133,1.178c0.26,0.131,1.562-0.188,1.598,0.179
				c0.079,0.401-0.988,1.329-0.988,1.329C83.621,45.987,83.621,45.987,83.542,46.243L83.542,46.243z M113.297,110.037
				c0.259-0.371,0.321-1.004,1.038-1.736c0.712-0.74,2.649-3.128,2.828-3.393c0.181-0.266,0.677-0.938,0.661-0.711
				c-0.061,0.274-0.419,1.049-0.703,1.646c-0.333,0.64-1.004,1.598-1.271,1.963c-0.27,0.367-1.303,1.878-1.557,2.261
				c-0.303,0.427-1.357,1.675-1.494,1.814s-0.932,0.915-1.043,0.989c-0.158,0.117-0.676,0.432-0.351,0.109
				c0.275-0.275,0.366-0.371,0.415-0.504c0-0.092,0.35-0.749,0.35-0.84c0-0.088,0.541-0.91,0.809-1.19
				C113.245,110.166,113.297,110.037,113.297,110.037L113.297,110.037z"/>
		</g>
	</g>
</g>
</svg>
